<svg width="390" height="298" viewBox="0 0 390 298" fill="none" xmlns="http://www.w3.org/2000/svg">
<path d="M376.598 0.109009H13.4024C6.00082 0.109009 0 6.11053 0 13.5147V283.628C0 291.032 6.00082 297.034 13.4024 297.034H376.597C383.999 297.034 389.999 291.032 389.999 283.628V13.5147C390 6.11053 383.999 0.109009 376.598 0.109009Z" fill="#1685FB"/>
<path d="M390 283.625V13.5169C390 6.10743 383.997 0.110474 376.597 0.110474H355.017C362.417 0.110474 368.42 6.10743 368.42 13.5169V283.624C368.42 291.034 362.417 297.031 355.017 297.031H376.597C383.997 297.031 390 291.035 390 283.625Z" fill="#4C60E1"/>
<path d="M390 58.1623V13.5169C390 6.10743 383.997 0.110474 376.597 0.110474H13.4032C6.00311 0.111236 0 6.10819 0 13.5169V58.1623H390Z" fill="#EAEAEA"/>
<path d="M390 58.1623V13.5169C390 6.10743 383.997 0.110474 376.597 0.110474H355.017C362.417 0.110474 368.42 6.10743 368.42 13.5169V58.1623H390Z" fill="#D0F1FA"/>
<path d="M75.4155 34.9677H75.3416C72.0913 34.9677 69.4565 32.3322 69.4565 29.0812C69.4565 25.8301 72.0913 23.1947 75.3416 23.1947C78.5918 23.1947 81.2639 25.8301 81.2639 29.0812C81.2639 32.3322 78.6657 34.9677 75.4155 34.9677Z" fill="#54DDAC"/>
<path d="M56.1324 35.024C52.9103 35.024 50.2824 32.429 50.2489 29.1985C50.2146 25.9474 52.822 23.2846 56.0722 23.2503C59.2874 23.2069 62.0212 25.824 62.0555 29.0751C62.0898 32.3269 59.519 34.989 56.2687 35.0232L56.1948 35.024C56.1743 35.024 56.153 35.024 56.1324 35.024Z" fill="#FEC53D"/>
<path d="M36.9244 35.0796C33.7023 35.0796 31.0736 32.4846 31.0408 29.2541C31.0073 26.0023 33.6147 23.3394 36.8649 23.3059C36.8855 23.3059 36.9068 23.3059 36.9266 23.3059C40.1495 23.3059 42.814 25.901 42.8475 29.1314C42.881 32.3825 40.311 35.0453 37.0599 35.0789L36.9861 35.0796C36.9663 35.0796 36.9449 35.0796 36.9244 35.0796Z" fill="#FC3E81"/>
<path d="M131.659 35.0796H111.235C107.985 35.0796 105.35 32.4442 105.35 29.1931C105.35 25.9421 107.985 23.3066 111.235 23.3066H131.659C134.909 23.3066 137.544 25.9421 137.544 29.1931C137.544 32.4442 134.909 35.0796 131.659 35.0796Z" fill="#D0F1FA"/>
<path d="M126.658 141.593H121.553V134.638C121.553 128.84 116.846 124.14 111.041 124.14C105.235 124.14 100.529 128.84 100.529 134.638V141.593H75.9985L93.6625 111.727C96.6149 106.735 94.9562 100.297 89.9573 97.3488C84.9585 94.3995 78.5128 96.0568 75.5604 101.048L48.5295 146.752C46.6103 149.997 46.5806 154.022 48.451 157.295C50.3223 160.568 53.8065 162.589 57.5809 162.589H100.53V194.228C100.53 200.026 105.236 204.727 111.042 204.727C116.847 204.727 121.554 200.026 121.554 194.228V162.589H126.659C132.465 162.589 137.171 157.889 137.171 152.091C137.17 146.293 132.464 141.593 126.658 141.593Z" fill="#FD9E28"/>
<path d="M332.42 141.593H327.314V134.638C327.314 128.84 322.608 124.14 316.802 124.14C310.997 124.14 306.29 128.84 306.29 134.638V141.593H281.759L299.423 111.727C302.376 106.735 300.717 100.297 295.718 97.3488C290.719 94.3995 284.273 96.0568 281.321 101.048L254.29 146.752C252.371 149.997 252.341 154.022 254.212 157.295C256.083 160.568 259.567 162.589 263.342 162.589H306.29V194.228C306.29 200.026 310.997 204.727 316.802 204.727C322.608 204.727 327.314 200.026 327.314 194.228V162.589H332.42C338.226 162.589 342.932 157.889 342.932 152.091C342.932 146.293 338.226 141.593 332.42 141.593Z" fill="#FD9E28"/>
<path fill-rule="evenodd" clip-rule="evenodd" d="M181.549 204.725H208.451C221.76 204.725 232.588 193.912 232.588 180.619V119.993C232.588 106.701 221.76 95.8871 208.451 95.8871H181.549C168.24 95.8871 157.412 106.7 157.412 119.993V180.619C157.412 193.911 168.24 204.725 181.549 204.725ZM180.368 124.144C180.368 121.206 182.763 118.814 185.705 118.814H204.294C207.237 118.814 209.632 121.206 209.632 124.144V176.468C209.632 179.407 207.237 181.798 204.294 181.798H185.705C182.763 181.798 180.368 179.406 180.368 176.468V124.144Z" fill="#FD9E28"/>
<path d="M283.273 272.579C280.01 272.579 277.328 269.934 277.328 266.671C277.328 263.408 279.935 260.763 283.198 260.763H283.273C286.536 260.763 289.181 263.408 289.181 266.671C289.181 269.934 286.536 272.579 283.273 272.579Z" fill="#EAEAEA"/>
<path d="M302.84 272.636C299.577 272.636 296.894 269.991 296.894 266.728C296.894 263.465 299.502 260.82 302.765 260.82H302.84C306.103 260.82 308.749 263.465 308.749 266.728C308.749 269.991 306.103 272.636 302.84 272.636Z" fill="#EAEAEA"/>
<path d="M322.409 272.693C322.389 272.693 322.368 272.693 322.347 272.693C319.084 272.66 316.429 269.987 316.462 266.724C316.496 263.482 319.097 260.875 322.332 260.875C322.353 260.875 322.373 260.875 322.394 260.875L322.469 260.876C325.732 260.91 328.35 263.582 328.316 266.846C328.283 270.087 325.643 272.693 322.409 272.693Z" fill="#EAEAEA"/>
<path d="M69.8372 248.314H50.2699C47.0069 248.314 44.3618 245.692 44.3618 242.458C44.3618 239.224 47.0069 236.602 50.2699 236.602H69.8372C73.1002 236.602 75.7453 239.224 75.7453 242.458C75.7453 245.692 73.1002 248.314 69.8372 248.314Z" fill="#EAEAEA"/>
<path d="M89.4045 272.639H50.2699C47.0069 272.639 44.3618 270.017 44.3618 266.783C44.3618 263.548 47.0069 260.926 50.2699 260.926H89.4045C92.6675 260.926 95.3126 263.548 95.3126 266.783C95.3126 270.017 92.6675 272.639 89.4045 272.639Z" fill="#EAEAEA"/>
</svg>
